<?xml version="1.0" standalone="no"?>
<!DOCTYPE svg PUBLIC "-//W3C//DTD SVG 1.1//EN" "http://www.w3.org/Graphics/SVG/1.1/DTD/svg11.dtd" >
<svg xmlns="http://www.w3.org/2000/svg">
<metadata></metadata>
<defs>
<font id="almoni_dl_aaabold" horiz-adv-x="1204" >
<font-face units-per-em="2048" ascent="1638" descent="-410" />
<missing-glyph horiz-adv-x="524" />
<glyph horiz-adv-x="0" />
<glyph horiz-adv-x="682" />
<glyph unicode=" "  horiz-adv-x="524" />
<glyph unicode="&#x09;" horiz-adv-x="524" />
<glyph unicode="&#xa0;" horiz-adv-x="524" />
<glyph unicode="!" horiz-adv-x="557" d="M145 764v297h268v-297l-52 -318h-164zM153 0h256v260h-256v-260z" />
<glyph unicode="&#x22;" horiz-adv-x="626" d="M72 735l53 470h164v-150l-130 -320h-87zM323 734l53 469h164v-149l-130 -320h-87z" />
<glyph unicode="#" horiz-adv-x="1278" d="M78 221l43 118h237l58 184h-240l43 121h248l81 219h143l-81 -219h225l81 219h146l-81 -219h223l-45 -121h-229l-58 -184h234l-45 -118h-240l-71 -221h-143l71 221h-226l-70 -221h-144l71 221h-231zM504 339h225l55 184h-223z" />
<glyph unicode="$" horiz-adv-x="896" d="M82 272h195q14 -62 37.5 -92t74.5 -39v338q-50 28 -86 50t-79.5 55.5t-71 64t-46.5 70.5t-19 80q0 115 73 187.5t229 76.5v135h101v-137q150 -8 233 -78t86 -198l-209 1q-1 60 -28.5 90t-81.5 42v-279q19 -12 61.5 -35.5t64 -37t56 -37.5t53.5 -46t40 -52t31.5 -66.5 t12.5 -79.5q0 -127 -81 -200.5t-238 -82.5v-135h-101v135q-148 5 -219.5 67.5t-87.5 202.5zM276 807q0 -43 22 -68.5t91 -66.5v250q-59 -5 -86 -32.5t-27 -82.5zM490 143q143 5 143 127q0 62 -28.5 95t-114.5 81v-303z" />
<glyph unicode="%" horiz-adv-x="1056" d="M72 711v166q0 94 46 143.5t133 49.5t133.5 -50t46.5 -143v-166q0 -94 -46.5 -143.5t-133.5 -49.5q-86 0 -132.5 50t-46.5 143zM161 0h131l589 1062h-131zM187 686q0 -34 17 -58.5t47 -24.5q31 0 48 24.5t17 58.5v216q0 33 -18.5 55.5t-47.5 22.5t-46 -22.5t-17 -55.5 v-216zM624 185v166q0 94 46.5 143.5t133.5 49.5q86 0 132.5 -50t46.5 -143v-166q0 -94 -46 -143.5t-133 -49.5q-86 0 -133 50t-47 143zM739 160q0 -34 17 -58.5t48 -24.5t47.5 24t16.5 59v216q0 33 -18.5 55.5t-46.5 22.5q-29 0 -46.5 -22.5t-17.5 -55.5v-216z" />
<glyph unicode="&#x26;" horiz-adv-x="899" d="M53.5 191.5q-4.5 49.5 8.5 88t46.5 81.5t64.5 71t78 66q-20 20 -92 110q-47 55 -50 114t31.5 104.5t103.5 74.5t158 29q88 0 156 -33t100 -81t29.5 -104t-45.5 -100q-51 -53 -160 -125l164 -186q23 64 23 150h157q3 -150 -76 -267l164 -184h-231l-53 61 q-121 -81 -269 -81q-206 0 -272 112q-31 50 -35.5 99.5zM249.5 255q-9.5 -40 17.5 -77q30 -42 80 -58t101.5 -4.5t88.5 44.5q1 0 2 1l3 3l-193 221q-37 -24 -63.5 -57t-36 -73zM306.5 765.5q-14.5 -49.5 46.5 -126.5q20 -24 33 -37q65 56 74 66q28 28 31.5 62t-21 59.5 t-72.5 25.5q-77 0 -91.5 -49.5z" />
<glyph unicode="'" horiz-adv-x="417" d="M90 729l60 475h184v-151l-146 -324h-98z" />
<glyph unicode="(" horiz-adv-x="686" d="M181 528q0 188 13.5 319t40 218.5t73 137t105 69.5t143.5 20q88 0 106 -4v-74q-63 -4 -105.5 -16.5t-75.5 -45.5t-51.5 -78t-30 -126t-15.5 -177t-4 -243q0 -146 4 -243.5t15.5 -181t30.5 -132.5t51.5 -85t75.5 -51t105 -19v-6v-68q-9 -2 -106 -2q-105 0 -173 35.5 t-115 125.5t-67 241.5t-20 385.5z" />
<glyph unicode=")" horiz-adv-x="673" d="M-5 -184q62 4 105 19t75.5 51t51.5 85t30.5 132.5t15.5 181t4 243.5q0 147 -4 243t-15.5 177t-30 126t-51.5 78t-75.5 45.5t-105.5 16.5v74q18 4 106 4q85 0 143.5 -20t105 -69.5t73 -137t40 -218.5t13.5 -319q0 -234 -20 -385.5t-67 -241.5t-115 -125.5t-173 -35.5 q-97 0 -106 2v68v6z" />
<glyph unicode="*" horiz-adv-x="811" d="M50 1157l60 178l212 -90l-22 230h188l-25 -227l218 88l57 -179l-229 -51l158 -172l-150 -108l-126 198l-121 -198l-146 107l152 174z" />
<glyph unicode="+" horiz-adv-x="956" d="M79 443v172h313v315h184v-315h314v-172h-314v-324h-184v324h-313z" />
<glyph unicode="," horiz-adv-x="487" d="M83 -323l66 553h201v-176l-159 -377h-108z" />
<glyph unicode="-" horiz-adv-x="817" d="M107 449v176h588v-176h-588z" />
<glyph unicode="." horiz-adv-x="567" d="M157 0v260h256v-260h-256z" />
<glyph unicode="/" horiz-adv-x="606" d="M7 -260l476 1552h117l-476 -1552h-117z" />
<glyph unicode="0" horiz-adv-x="917" d="M105 371v325q0 184 91.5 281.5t261.5 97.5t261 -98.5t91 -280.5v-325q0 -185 -90.5 -282t-261.5 -97q-170 0 -261.5 98t-91.5 281zM331 322q0 -66 33.5 -115t93.5 -49t93.5 48t33.5 116v423q0 64 -36.5 108t-92.5 44q-57 0 -91 -43.5t-34 -108.5v-423z" />
<glyph unicode="1" horiz-adv-x="653" d="M63 0v180h182v549h-170v123q62 0 110.5 21.5t73.5 52t41.5 61.5t21.5 53l4 21h142v-881h114v-180h-519z" />
<glyph unicode="2" horiz-adv-x="827" d="M62 688q-13 181 72.5 282t282.5 101q108 0 188.5 -42.5t118.5 -113t28.5 -168.5t-73.5 -202q-38 -65 -95.5 -154.5t-95.5 -146.5l-39 -58h289v-186h-655q22 36 121.5 195.5t182 292.5t112.5 186q29 49 31.5 100t-24.5 86.5t-77 38.5q-38 1 -65.5 -10.5t-42.5 -30t-23 -48 t-10 -57.5t0 -65h-226z" />
<glyph unicode="3" horiz-adv-x="839" d="M81 313h225q0 -82 29 -119.5t90 -37.5q62 0 95.5 40t33.5 115q0 86 -44.5 125t-146.5 39v137q66 0 111 43t45 111q0 59 -20.5 90t-69.5 37q-76 11 -106.5 -27.5t-32.5 -120.5h-209q-11 153 75.5 241.5t251.5 88.5q156 0 242 -80t86 -200q0 -82 -44.5 -148.5t-137.5 -85.5 q110 -14 162.5 -87.5t52.5 -180.5q0 -139 -96.5 -224t-255.5 -85q-170 0 -253.5 76t-82.5 253z" />
<glyph unicode="4" horiz-adv-x="897" d="M9 201l358 860h226l-279 -688h230l2 209h192v-205h107v-176h-107v-201h-194v201h-535z" />
<glyph unicode="5" horiz-adv-x="852" d="M111 299h220q6 -129 94 -129q29 0 50.5 6t45 24.5t36.5 60.5t13 106q0 86 -15.5 134.5t-38.5 65.5t-63 25q-35 6 -79.5 -13t-65.5 -67h-197v549h633v-176h-450v-223q33 53 116 76.5t170 -5.5q193 -72 193 -373q0 -172 -91 -270t-261 -98q-47 0 -88.5 7.5t-83.5 28.5 t-71.5 54.5t-48 89t-18.5 127.5z" />
<glyph unicode="6" horiz-adv-x="827" d="M44 295q-7 79 3 135.5t58 149.5q28 52 97.5 172.5t124.5 214.5l55 94h260l-303 -430q44 21 102 27t84 -1q106 -18 173 -105t67 -228q0 -149 -100.5 -241.5t-256.5 -92.5q-149 0 -252 88.5t-112 216.5zM247 334q0 -75 44 -131t115 -56q66 0 112 56.5t46 130.5 q0 73 -43 129.5t-106 56.5q-71 0 -119.5 -56t-48.5 -130z" />
<glyph unicode="7" horiz-adv-x="766" d="M91 874v187h641l-373 -1061h-239l321 874h-350z" />
<glyph unicode="8" horiz-adv-x="852" d="M50 319q0 90 58 170t145 109q-69 21 -110.5 82.5t-41.5 130.5q0 114 90 189t230 75q139 0 229 -75t90 -189q0 -68 -39.5 -127t-109.5 -86q94 -31 147 -108.5t53 -170.5q0 -141 -105 -236t-265 -95q-159 0 -265 95.5t-106 235.5zM263 324q0 -85 47.5 -144t110.5 -59 q65 0 115.5 59.5t50.5 143.5t-48 141t-118 57q-69 0 -113.5 -56.5t-44.5 -141.5zM294 801q0 -58 37 -101t90 -43t92 43.5t39 100.5q0 56 -36 94.5t-95 38.5q-58 0 -92.5 -38t-34.5 -95z" />
<glyph unicode="9" horiz-adv-x="852" d="M62 737q0 149 102 242.5t257 93.5q151 0 251 -86.5t109 -216.5q5 -81 -5.5 -139.5t-57.5 -149.5q-28 -53 -97 -173t-123 -214l-55 -94h-260l289 420q-38 -18 -93.5 -21.5t-78.5 4.5q-105 27 -171.5 111t-66.5 223zM275 721q0 -77 43.5 -127.5t106.5 -50.5 q67 0 116.5 49.5t49.5 130.5q0 86 -46 136t-122 50q-64 0 -106 -51.5t-42 -136.5z" />
<glyph unicode=":" horiz-adv-x="657" d="M208 618v260h256v-260h-256zM210 0v260h256v-260h-256z" />
<glyph unicode=";" horiz-adv-x="657" d="M159 -341l67 533h206v-169l-163 -364h-110zM208 618v260h256v-260h-256z" />
<glyph unicode="&#x3c;" horiz-adv-x="978" d="M66 479v109l817 405v-217l-617 -246l617 -241v-215z" />
<glyph unicode="=" horiz-adv-x="954" d="M119 273v175h712v-175h-712zM119 610v175h712v-175h-712z" />
<glyph unicode="&#x3e;" horiz-adv-x="960" d="M76 74v215l617 241l-617 246v217l817 -405v-109z" />
<glyph unicode="?" horiz-adv-x="809" d="M62 732q-12 182 71.5 262.5t274.5 78.5q187 0 258 -90q42 -54 54 -115.5t-12 -126.5t-83 -120q-119 -110 -119 -232h-195q-9 57 8.5 110t43 85t62 74.5t51.5 66.5q29 50 24.5 94.5t-33.5 75.5t-67 31q-73 0 -98 -51.5t-20 -142.5h-220zM282 0h243v224h-243v-224z" />
<glyph unicode="@" horiz-adv-x="1470" d="M-5 395q0 138 55 264t151.5 220.5t238.5 151t306 56.5q212 0 374 -70.5t253 -204.5t92 -314q0 -131 -56.5 -247.5t-143 -186.5t-179.5 -80q-109 -11 -180.5 40t-77.5 138q-65 -77 -178 -74q-65 1 -116 22t-88.5 68.5t-44 123t17.5 185.5q39 164 127.5 231.5t220.5 59.5 q137 -9 162 -119l22 86h160q-109 -401 -135 -493q-26 -98 -2 -140t96 -34q49 4 89.5 43t65.5 99.5t38.5 132t13.5 145.5q-1 130 -37 221.5t-107 144.5t-165.5 77t-221.5 24q-116 0 -216.5 -39.5t-173.5 -112t-114.5 -180.5t-41.5 -238q0 -109 21.5 -193t69 -150.5t123 -103 t184 -49.5t252.5 9l10 -109l-1 -2q-210 -37 -371 -2.5t-270.5 124.5t-166 213t-56.5 263zM570.5 248q24.5 -61 110.5 -58q82 4 116 52.5t76 199.5q33 130 7.5 180t-113.5 50q-73 0 -112.5 -45t-74.5 -176q-34 -142 -9.5 -203z" />
<glyph unicode="A" horiz-adv-x="1207" d="M-29 0l488 1278h309l486 -1278h-261l-131 387h-499l-131 -387h-261zM418 551h389l-195 575z" />
<glyph unicode="B" horiz-adv-x="1114" d="M130 0v1278h541q146 0 236.5 -81.5t90.5 -209.5t-50 -198t-171 -93q142 -22 203 -110t61 -242q0 -171 -98 -257.5t-289 -86.5h-524zM359 162h234q116 0 174.5 46t58.5 167q0 123 -62.5 176t-178.5 53h-226v-442zM359 770h197q109 0 168 52t59 143q0 86 -51 121.5 t-168 35.5h-205v-352z" />
<glyph unicode="C" horiz-adv-x="1137" d="M85 526q-1 50 -1 106t1 120q9 267 140.5 405.5t375.5 138.5q208 0 333.5 -106.5t147.5 -312.5h-233q-5 98 -73.5 171.5t-174.5 73.5q-135 0 -203 -82t-77 -243q-4 -62 -4.5 -140t4.5 -172q13 -331 280 -331q114 0 177 66.5t77 188.5h240q-26 -216 -152 -322.5 t-342 -106.5q-492 0 -516 546z" />
<glyph unicode="D" horiz-adv-x="1210" d="M173 0v1278h463q89 0 160 -16.5t122 -44.5t88.5 -73.5t60.5 -96t36.5 -119t18.5 -136t5 -153.5t-5 -154t-18.5 -136.5t-36.5 -119t-60.5 -95.5t-88.5 -73.5t-122 -44.5t-160 -16h-463zM409 158h153q97 0 161.5 24t98 53.5t50 99t18.5 117t2 151.5v36q0 187 -8 245 q-18 135 -102 188q-76 48 -220 48h-153v-962z" />
<glyph unicode="E" horiz-adv-x="962" d="M140 0v1278h774v-182h-532v-322h450v-180h-450v-414h532v-180h-774z" />
<glyph unicode="F" horiz-adv-x="975" d="M140 -12v1278h768l-2 -182h-524v-322h426v-180h-426v-594h-242z" />
<glyph unicode="G" horiz-adv-x="1220" d="M99 526q-3 50 -3 106t3 120q9 267 140.5 405.5t375.5 138.5q213 0 347.5 -97.5t148.5 -287.5h-242q-10 105 -76 158t-178 53q-136 0 -203.5 -82t-76.5 -243q-4 -59 -4 -137t4 -175q13 -331 280 -331q154 0 224.5 93.5t72.5 278.5h-272v164h493q0 -108 -2 -164 q-12 -282 -131.5 -411.5t-384.5 -129.5q-496 0 -516 541z" />
<glyph unicode="H" horiz-adv-x="1181" d="M132 0v1278h242v-545h450v545h244v-1278h-244v547h-450v-547h-242z" />
<glyph unicode="I" horiz-adv-x="512" d="M134 0v1278h240v-1278h-240z" />
<glyph unicode="J" horiz-adv-x="596" d="M-3 0v180h108q37 0 54 2.5t33 16t21 41t5 77.5v961h244v-983q0 -157 -57 -226t-169 -69h-239z" />
<glyph unicode="K" horiz-adv-x="1132" d="M146 0v1278h228v-1278h-228zM376 674l507 604h228l-492 -580l533 -698h-269z" />
<glyph unicode="L" horiz-adv-x="899" d="M161 0v1278h243v-1098h484v-180h-727z" />
<glyph unicode="M" horiz-adv-x="1523" d="M142 0v1278h377l248 -795l248 795h374v-1278h-215v1143l-301 -910h-213l-301 910v-1143h-217z" />
<glyph unicode="N" horiz-adv-x="1290" d="M128 0v1278h344l467 -1120v1120h221v-1278h-344l-465 1143v-1143h-223z" />
<glyph unicode="O" horiz-adv-x="1192" d="M79 526q-1 50 -1 106t1 120q9 267 140.5 405.5t375.5 138.5t375.5 -138.5t140.5 -405.5q2 -64 2 -120t-2 -106q-22 -544 -516 -544q-246 0 -375 134t-141 410zM314 485q13 -331 281 -331q267 0 280 331q4 96 4 174.5t-4 137.5q-9 161 -76.5 243t-203.5 82t-204 -82 t-77 -243q-4 -60 -4 -138t4 -174z" />
<glyph unicode="P" horiz-adv-x="1050" d="M120 0v1278h452q96 0 173 -21.5t136.5 -67.5t92 -124t32.5 -184q0 -86 -22.5 -153.5t-61.5 -112t-94.5 -74t-118.5 -42t-137 -12.5h-213v-487h-239zM359 651h178q52 0 91.5 8.5t78.5 31.5t60.5 71t21.5 119q0 241 -252 241h-178v-471z" />
<glyph unicode="Q" d="M87 526q-1 50 -1 106t1 120q9 267 140.5 405.5t375.5 138.5t375.5 -138.5t140.5 -405.5q3 -64 3 -120t-3 -106q-21 -482 -420 -524q101 -12 154 -31l186 -67l-55 -160q-309 127 -502 207q-120 50 -227 137q-156 128 -168 438zM323 485q13 -331 280 -331q268 0 281 331 q4 97 4 175t-4 137q-10 161 -77 243t-204 82q-135 0 -203 -82t-77 -243q-4 -54 -4 -132t4 -180z" />
<glyph unicode="R" horiz-adv-x="1097" d="M146 0v1278h453q96 0 173 -21.5t137.5 -67.5t93 -124t32.5 -184q0 -175 -88.5 -268.5t-239.5 -116.5l306 -496h-244l-279 487h-108v-487h-236zM382 651h182q40 0 72.5 4.5t67.5 19.5t58.5 39t38.5 67t15 100q0 241 -252 241h-182v-471z" />
<glyph unicode="S" horiz-adv-x="995" d="M66 360h226q0 -106 54.5 -158t133.5 -52q98 0 151.5 48t53.5 134q0 85 -55.5 136.5t-169.5 102.5q-100 47 -164.5 86t-118 88.5t-78 108t-24.5 131.5q0 136 114 223.5t303 87.5q220 0 332 -102q108 -97 107 -266v-15h-226q0 97 -55.5 163.5t-155.5 66.5q-78 0 -133 -44.5 t-55 -111.5q0 -68 47 -115t178 -110q108 -50 176 -91.5t119 -94t72.5 -114.5t21.5 -145q0 -151 -122.5 -241.5t-317.5 -90.5q-83 0 -151.5 17.5t-128.5 58t-95.5 116.5t-38.5 183z" />
<glyph unicode="T" horiz-adv-x="860" d="M-3 1112v166h860v-166h-311v-1112h-246v1112h-303z" />
<glyph unicode="U" d="M113 483v795h248v-780q0 -330 239 -330q132 0 186 83t54 247v780h248v-795q0 -242 -128 -366.5t-360 -124.5q-231 0 -359 124.5t-128 366.5z" />
<glyph unicode="V" horiz-adv-x="1054" d="M-38 1278h268l299 -1081l297 1081h268l-444 -1278h-244z" />
<glyph unicode="W" horiz-adv-x="1558" d="M-30 1278h258l187 -1040l225 1040h285l225 -1040l186 1040h260l-340 -1278h-219l-254 1083l-262 -1083h-219z" />
<glyph unicode="X" horiz-adv-x="1020" d="M30 0l372 639l-372 639h251l234 -504l233 504h252l-370 -639l370 -639h-252l-233 504l-234 -504h-251z" />
<glyph unicode="Y" horiz-adv-x="948" d="M-30 1278h244l258 -600l258 600h244l-385 -754v-524h-236v524z" />
<glyph unicode="Z" horiz-adv-x="868" d="M23 0l510 1104h-485v174h803l-510 -1100h485v-178h-803z" />
<glyph unicode="[" horiz-adv-x="583" d="M206 -260v1551h303v-119h-144v-1311h144v-121h-303z" />
<glyph unicode="\" horiz-adv-x="604" d="M-7 1292h117l476 -1552h-117z" />
<glyph unicode="]" horiz-adv-x="583" d="M46 -139h144v1311h-144v119h303v-1551h-303v121z" />
<glyph unicode="^" horiz-adv-x="1097" d="M93 694l375 583h170l375 -583h-195l-268 475l-260 -475h-197z" />
<glyph unicode="_" horiz-adv-x="1153" d="M13 0v195h1139v-195h-1139z" />
<glyph unicode="`" horiz-adv-x="458" d="M104 729l60 475h184v-151l-146 -324h-98z" />
<glyph unicode="a" horiz-adv-x="999" d="M64 258q0 123 67.5 201.5t215.5 111.5q72 15 184 36.5t138 27.5q0 29 -4.5 50.5t-10.5 36.5t-20.5 24.5t-25 14.5t-34.5 7.5t-39.5 3t-48.5 0.5q-44 0 -133.5 -5.5t-156.5 -10.5l-68 -6l-8 165q415 21 481 21q76 0 129.5 -18.5t85.5 -49t50 -82.5t24 -107t6 -134v-545 h-225v121q-85 -133 -322 -133q-149 0 -217 72.5t-68 197.5zM265 264q0 -41 26.5 -70t57.5 -40t59 -11q121 0 192 74t71 176v111q-85 -18 -226 -58q-86 -25 -133 -71t-47 -111z" />
<glyph unicode="b" horiz-adv-x="1046" d="M126 0v1278h219v-443q81 112 268 112q57 0 107 -13t99 -48t83.5 -88.5t56 -141.5t21.5 -201q0 -114 -21.5 -199t-55.5 -134.5t-84 -79.5t-98.5 -40t-107.5 -10q-86 0 -163.5 31.5t-104.5 95.5v-119h-219zM339 459q0 -301 209 -301q38 0 67 6.5t57.5 26t46.5 52.5t29 87.5 t11 128.5q0 93 -16 157.5t-46 99t-66 49t-83 14.5q-94 0 -151.5 -76t-57.5 -244z" />
<glyph unicode="c" horiz-adv-x="952" d="M83 383q-2 36 -2.5 77t2.5 87q6 193 112 294t297 101q186 0 281.5 -72.5t118.5 -232.5h-240q-9 76 -52.5 116t-107.5 40q-86 0 -123.5 -50.5t-46.5 -160.5q-2 -51 -2 -103.5t2 -107.5q11 -236 170 -236q71 0 112.5 44.5t49.5 121.5h238q-19 -171 -110.5 -243t-289.5 -72 q-391 0 -409 397z" />
<glyph unicode="d" horiz-adv-x="1011" d="M52 455q0 113 21.5 200.5t56 141.5t83.5 88.5t99.5 47.5t108.5 13q184 0 268 -112v444h211v-1278h-211v119q-28 -64 -106 -95.5t-162 -31.5q-60 0 -108.5 10t-99 40t-84.5 79.5t-55.5 134.5t-21.5 199zM273 459q0 -74 11 -128.5t29 -87.5t46.5 -52.5t57.5 -26t67 -6.5 q209 0 209 301q0 168 -57 243.5t-152 75.5q-47 0 -83 -14.5t-66 -48.5t-46 -98.5t-16 -157.5z" />
<glyph unicode="e" horiz-adv-x="991" d="M79 383q-2 36 -2.5 77t2.5 87q10 195 115.5 295t304.5 100t308 -107t109 -308q0 -140 -2 -148h-610q3 -117 53.5 -184.5t141.5 -67.5q65 0 103.5 32.5t47.5 88.5h244q-15 -129 -124.5 -195.5t-270.5 -66.5q-200 0 -303.5 97.5t-116.5 299.5zM302 526h383q0 54 -7 96 t-25.5 84t-57 67t-96.5 28q-103 0 -149 -76t-48 -199z" />
<glyph unicode="f" horiz-adv-x="620" d="M52 764v164h129v71q0 79 16 135.5t45 86.5t62.5 43.5t73.5 13.5h192v-160h-82q-50 0 -77 -21t-27 -89v-80h164v-164h-160v-764h-207v764h-129z" />
<glyph unicode="g" horiz-adv-x="1026" d="M60 471q0 95 14.5 170.5t41.5 125t60.5 83.5t77 52t84.5 25.5t89 7.5q92 0 161 -41.5t107 -113.5v146h221l-2 -797q0 -427 -301 -448q-63 -4 -130 -4h-27q-81 1 -145 5l-64 3l10 155q21 -1 52 -2.5t119 -3.5q29 -1 53 -1q48 0 77 3q137 7 137 191v104 q-28 -62 -105.5 -93.5t-162.5 -31.5q-59 0 -107.5 10.5t-98 41t-84 80.5t-56 135t-21.5 198zM281 467q0 -88 16 -147t47 -89t66.5 -41.5t83.5 -11.5q97 0 152 65.5t55 223.5q0 142 -58 220t-149 78q-96 0 -154.5 -71t-58.5 -227z" />
<glyph unicode="h" horiz-adv-x="1079" d="M120 0v1278h227v-447q97 105 270 105q171 0 269 -109.5t98 -275.5v-551h-217v516q0 118 -59 183t-156 65q-96 0 -150.5 -64.5t-54.5 -183.5v-516h-227z" />
<glyph unicode="i" horiz-adv-x="473" d="M128 0v928h227v-928h-227zM128 1087v191h227v-191h-227z" />
<glyph unicode="j" horiz-adv-x="508" d="M-89 -254l35 135q15 -7 38 -13.5t58 -10.5t59 6q53 19 53 137v928h228v-946q0 -114 -36.5 -177t-119.5 -92q-47 -15 -103 -15q-26 0 -55 4q-89 10 -157 44zM154 1087v191h228v-191h-228z" />
<glyph unicode="k" horiz-adv-x="932" d="M120 0v1278h219v-1278h-219zM342 481l393 447h229l-374 -432l381 -496h-252z" />
<glyph unicode="l" horiz-adv-x="503" d="M118 246v1032h223v-986q0 -70 20.5 -92.5t65.5 -22.5h67v-177h-180q-42 0 -73 8.5t-61 32.5t-46 75.5t-16 129.5z" />
<glyph unicode="m" horiz-adv-x="1591" d="M118 0v928h208v-107q77 115 242 115q218 0 299 -162q42 76 117 119t172 43q93 0 161 -29.5t107.5 -83.5t57.5 -121.5t18 -150.5v-551h-209v532q0 118 -50 183t-138 65q-89 0 -140 -65.5t-51 -182.5v-532h-209v532q0 118 -50 183t-138 65t-138.5 -65t-50.5 -183v-532h-208 z" />
<glyph unicode="n" horiz-adv-x="1048" d="M103 0v928h228v-123q72 131 264 131q81 0 145.5 -20t107 -54t70.5 -83.5t40 -105.5t12 -122v-551h-220v532q0 117 -58.5 182.5t-156.5 65.5q-96 0 -150 -65t-54 -183v-532h-228z" />
<glyph unicode="o" horiz-adv-x="960" d="M73 383q-2 36 -2 77t2 87q6 194 110 294.5t297 100.5t297 -100.5t111 -294.5q2 -46 2 -87t-2 -77q-16 -397 -408 -397q-195 0 -296.5 98t-110.5 299zM298 360q9 -225 182 -225t182 225q2 73 2 125.5t-2 85.5q-6 110 -50 166t-132 56q-87 0 -130.5 -56t-51.5 -166 q-2 -50 -2 -102.5t2 -108.5z" />
<glyph unicode="p" horiz-adv-x="1030" d="M126 -260v1188h211v-119q28 64 106 95.5t164 31.5q48 0 89.5 -7.5t84.5 -25.5t76.5 -52t60.5 -83.5t41.5 -124.5t14.5 -170q0 -113 -21.5 -201.5t-56 -143t-83.5 -90t-99 -49.5t-107 -14q-187 0 -270 113v-348h-211zM333 469q0 -170 57.5 -248t151.5 -78q97 0 153.5 73.5 t56.5 252.5q0 74 -11 128.5t-29 87.5t-46 52.5t-57 26t-67 6.5q-209 0 -209 -301z" />
<glyph unicode="q" horiz-adv-x="1015" d="M58 473q0 95 14.5 170t41.5 124.5t60.5 83.5t76.5 52t84.5 25.5t89.5 7.5q86 0 164 -31.5t106 -95.5v119h211v-1188h-211v348q-78 -105 -270 -105q-57 0 -107 13t-99 47.5t-83.5 88t-56 141t-21.5 200.5zM279 469q0 -326 211 -326q94 0 151.5 78t57.5 248q0 301 -209 301 q-38 0 -67 -6.5t-57 -26.5t-46.5 -52.5t-29.5 -87t-11 -128.5z" />
<glyph unicode="r" horiz-adv-x="678" d="M128 0v928h211v-199q30 78 95.5 138t154.5 67q17 1 31 1h13q19 -1 31 -3l11 -2l-13 -219q-57 6 -88 6q-114 0 -173.5 -82.5t-61.5 -204.5v-430h-211z" />
<glyph unicode="s" horiz-adv-x="821" d="M54 268h232q3 -65 38.5 -101t85.5 -36q111 0 119 92q1 6 1 12q0 44 -32 78q-36 38 -133 82q-44 20 -70 32t-64 32.5t-60 37.5t-47.5 42.5t-38 51t-18.5 59.5q-3 18 -3 37q0 16 2 34q13 102 100 162.5t238 60.5q164 0 262 -68q96 -66 95 -194v-8h-217q0 123 -129 123 q-63 0 -92 -25.5t-29 -79.5q0 -32 21 -57t44 -37.5t87 -41.5q21 -10 32 -15q62 -30 103 -54.5t85 -62t66.5 -84.5t22.5 -104q0 -116 -92.5 -184t-266.5 -68q-156 0 -243.5 77.5t-98.5 206.5z" />
<glyph unicode="t" horiz-adv-x="551" d="M3 772v156h139v235h203v-235h168v-156h-168v-488q0 -37 5.5 -59.5t19.5 -32.5t27.5 -12.5t37.5 -2.5h102v-177h-192q-44 0 -76 8.5t-63 32.5t-47.5 75.5t-16.5 129.5v526h-139z" />
<glyph unicode="u" horiz-adv-x="1005" d="M113 377v551h213v-533q0 -121 40.5 -180t127.5 -59q88 0 136.5 71t48.5 193v508h213v-928h-213v113q-62 -121 -232 -121q-334 0 -334 385z" />
<glyph unicode="v" horiz-adv-x="723" d="M-44 928h252l161 -690l144 690h252l-299 -928h-211z" />
<glyph unicode="w" horiz-adv-x="1231" d="M-38 928h244l120 -625l146 625h285l145 -625l121 625h241l-282 -928h-162l-207 776l-205 -776h-161z" />
<glyph unicode="x" horiz-adv-x="811" d="M1 0l291 489l-291 439h256l141 -287l141 287h256l-290 -439l290 -489h-256l-141 338l-141 -338h-256z" />
<glyph unicode="y" horiz-adv-x="747" d="M-28 928h242l168 -588l145 588h236l-375 -1188h-223l133 387z" />
<glyph unicode="z" horiz-adv-x="688" d="M5 0l362 758h-337v170h657l-363 -751h338v-177h-657z" />
<glyph unicode="{" horiz-adv-x="665" d="M167 498v69q28 0 50 7.5t34 19.5t21 26t12 28.5t4 26.5t0 19v8v271q0 116 26.5 193.5t73.5 114.5t112.5 50t143.5 0v-63q-59 1 -98 -15t-59.5 -37t-30.5 -71.5t-11.5 -86t-1.5 -111.5v-11v-215q0 -66 -37 -121t-116 -68q78 -12 115.5 -67.5t37.5 -120.5v-215v-11 q0 -76 1.5 -111.5t11.5 -86t30.5 -71.5t59.5 -37t98 -15v-63q-78 -13 -143.5 0t-112.5 50t-73.5 114.5t-26.5 193.5v270q0 3 0.5 8t-0.5 19t-4.5 27t-11.5 28.5t-21 27t-34.5 19t-49.5 7.5z" />
<glyph unicode="|" horiz-adv-x="546" d="M220 -260v1551h113v-1551h-113z" />
<glyph unicode="}" horiz-adv-x="632" d="M-5 -203q59 -1 98 15t59.5 37t30.5 71.5t11.5 86t1.5 111.5v11v215q0 65 37.5 120.5t115.5 67.5q-79 13 -116 68t-37 121v215v11q0 76 -1.5 111.5t-11.5 86t-30.5 71.5t-59.5 37t-98 15v63q78 13 143.5 0t112.5 -50t73.5 -114.5t26.5 -193.5v-271q2 -1 -0.5 -14 t3.5 -33.5t16 -40t37 -33.5t65 -14v-69q-28 0 -50 -7.5t-34 -19.5t-21 -26.5t-12 -29t-4 -26.5t-1 -19l1 -8v-270q0 -116 -26.5 -193.5t-73.5 -114.5t-112.5 -50t-143.5 0v63z" />
<glyph unicode="~" horiz-adv-x="567" d="M32 413v146q2 2 17 19t20 21.5t19.5 16.5t25 16t27.5 8.5t36 4.5q44 0 81.5 -20t66.5 -40t55 -20q19 0 35.5 4t27.5 8.5t24 15t18.5 16t17.5 19t16 17.5v-146q-4 -5 -15 -18.5t-16.5 -20t-17 -17t-22.5 -15.5t-27 -9t-35 -4q-33 0 -59.5 14t-42 31t-44 31t-63.5 14 q-29 0 -55 -11.5t-36 -20t-32 -34.5z" />
<glyph unicode="&#xa1;" horiz-adv-x="510" d="M132 -1v290l42 338h184l42 -338v-290h-268zM137 802v260h256v-260h-256z" />
<glyph unicode="&#xa2;" horiz-adv-x="882" d="M78 383q-5 72 0 164q4 181 91.5 281.5t247.5 111.5v150h75v-149q155 -7 235.5 -80t100.5 -224h-222q-7 63 -37.5 102t-76.5 50v-650q102 23 115 162h221q-16 -163 -94 -235.5t-242 -78.5v-114h-75v115q-324 20 -339 395zM299 371q10 -204 118 -232v650q-57 -12 -84 -62 t-34 -145q-3 -102 0 -211z" />
<glyph unicode="&#xa3;" horiz-adv-x="659" d="M63 764v164h120v71q0 151 51 215t132 64h179v-160h-76q-47 0 -72 -21t-25 -89v-80h153v-164h-149v-611h207v-154h-496v154h96v611h-120z" />
<glyph unicode="&#xa4;" horiz-adv-x="952" d="M89 958l63 62l111 -113q92 68 208.5 65t207.5 -75l104 107l60 -64l-107 -106q62 -90 62 -201t-64 -197l104 -104l-61 -62l-102 103q-87 -69 -200.5 -70t-205.5 64l-110 -109l-60 59l107 109q-74 93 -75.5 210t71.5 210zM276.5 638q0.5 -77 54.5 -136q57 -54 134 -54.5 t136 54.5q55 54 55.5 134.5t-55.5 135.5q-54 56 -135.5 56t-134.5 -56q-55 -57 -54.5 -134z" />
<glyph unicode="&#xa5;" horiz-adv-x="938" d="M-30 1278h244l258 -600l258 600h244l-385 -737h221v-116h-221v-97h221v-116h-221v-212h-236v212h-229v116h229v97h-229v116h229z" />
<glyph unicode="&#xa6;" horiz-adv-x="315" d="M99 -259v586h113v-586h-113zM99 692v586h113v-586h-113z" />
<glyph unicode="&#xa7;" horiz-adv-x="759" d="M50 1067q-1 64 24.5 111t72 72.5t103 37.5t124.5 12q159 0 252 -67t90 -205h-170q5 65 -30.5 110t-117.5 46q-75 2 -115.5 -30.5t-35.5 -92.5q3 -42 32 -84t58 -68t83 -69q13 -10 19 -15q17 -13 71 -52t84.5 -62.5t66.5 -59.5t51 -67q26 -53 27 -107.5t-30.5 -111.5 t-95.5 -105q128 -88 125 -260q-1 -110 -95 -174t-230 -64q-164 0 -266 84.5t-93 227.5h186q0 -162 183 -162q72 0 105 36.5t26 82.5q-2 10 -9.5 23t-21.5 28.5t-27 28t-34.5 31t-33.5 28.5t-34.5 28t-28.5 23t-40 33t-49.5 41t-48.5 43t-50.5 48.5t-42.5 47.5t-37.5 51 t-22 47.5t-8.5 47.5q-5 162 152 213q-67 60 -117.5 135.5t-50.5 138.5zM255 571q10 -22 47 -58t73 -65.5t79.5 -62.5t48.5 -37q43 29 61.5 56t13.5 53t-21.5 48.5t-49.5 51.5q-107 97 -168 135q-58 -26 -79.5 -54.5t-4.5 -66.5z" />
<glyph unicode="&#xa8;" horiz-adv-x="571" d="M79 1271q0 35 23 58.5t57 23.5q35 0 58 -23.5t23 -58.5q0 -34 -23 -57t-58 -23q-34 0 -57 23t-23 57zM331 1271q0 35 22.5 58.5t56.5 23.5q36 0 59 -23.5t23 -58.5q0 -34 -23 -57t-59 -23q-34 0 -56.5 23t-22.5 57z" />
<glyph unicode="&#xa9;" horiz-adv-x="1720" d="M62 641q0 185 80.5 335t238 240.5t365.5 90.5t366 -90.5t239 -240.5t81 -335t-81 -334.5t-239 -239.5t-366 -90t-365.5 90t-238 239.5t-80.5 334.5zM222 639q0 -252 141.5 -398.5t380.5 -146.5q240 0 381.5 146.5t141.5 398.5t-141.5 398.5t-381.5 146.5 q-239 0 -380.5 -146.5t-141.5 -398.5zM423 573q-2 57 0 127q6 153 89 233.5t234 80.5q147 0 222 -58t94 -184h-189q-7 60 -41.5 91.5t-85.5 31.5q-67 0 -97 -39.5t-38 -126.5v-166q10 -186 135 -186q56 0 88.5 34.5t40.5 96.5h187q-14 -136 -86.5 -193t-229.5 -57 q-308 0 -323 315z" />
<glyph unicode="&#xaa;" horiz-adv-x="696" d="M73 846q0 155 175 194q45 10 114 22.5t85 16.5q0 25 -5.5 41.5t-12.5 25t-24 13t-30 5t-41 0.5q-27 0 -82.5 -3t-97.5 -7l-42 -3l-5 102q257 13 298 13q58 0 95.5 -16t56 -50.5t25 -74t6.5 -101.5v-338h-139v75q-54 -82 -200 -82q-176 0 -176 167zM197 850 q0 -37 29.5 -56t59.5 -19q75 0 119 45.5t44 108.5v69q-58 -12 -140 -36q-112 -32 -112 -112z" />
<glyph unicode="&#xab;" horiz-adv-x="610" d="M57 736l54 468h164v-149l-130 -319h-88zM319 736l54 468h164v-149l-130 -319h-88z" />
<glyph unicode="&#xac;" horiz-adv-x="1267" d="M58 -1v970h604l-125 -129h-348v-711h664v418l135 135v-683h-930zM355 428l617 664l-158 184h422v-465l-162 195l-631 -670z" />
<glyph unicode="&#xad;" horiz-adv-x="817" d="M107 449v176h588v-176h-588z" />
<glyph unicode="&#xae;" horiz-adv-x="1460" d="M62 641q0 185 80.5 335t238 240.5t365.5 90.5t366 -90.5t239 -240.5t81 -335t-81 -334.5t-239 -239.5t-366 -90t-365.5 90t-238 239.5t-80.5 334.5zM222 639q0 -252 141.5 -398.5t380.5 -146.5q240 0 381.5 146.5t141.5 398.5t-141.5 398.5t-381.5 146.5 q-239 0 -380.5 -146.5t-141.5 -398.5zM531 279v725h244q114 0 180 -54t66 -172q0 -191 -185 -219l175 -280h-140l-157 276h-45v-276h-138zM669 649h86q29 0 51.5 4.5t44.5 17.5t34.5 40t12.5 67q0 137 -143 137h-86v-266z" />
<glyph unicode="&#xb0;" horiz-adv-x="745" d="M91 1001q0 119 84.5 203t202.5 84t202 -84.5t84 -202.5t-84 -202t-202 -84t-202.5 84t-84.5 202zM202 1001q0 -74 50 -124t124 -50t125 50.5t51 123.5q0 74 -51 125.5t-125 51.5t-124 -51t-50 -126z" />
<glyph unicode="&#xb1;" horiz-adv-x="573" d="M25 492v129h195v188h137v-188h195v-129h-195v-199h-137v199h-195zM32 0v115h510v-115h-510z" />
<glyph unicode="&#xb2;" horiz-adv-x="495" d="M50 1067q-15 212 197 212q123 0 169 -86.5t-25 -204.5q-21 -36 -52.5 -86t-52.5 -82l-22 -31h160v-103h-362q12 19 110 177t120 196q25 40 14 81t-53 44q-50 1 -65.5 -30.5t-12.5 -86.5h-125z" />
<glyph unicode="&#xb3;" horiz-adv-x="463" d="M35 858h125q0 -87 67 -87q34 0 52.5 22t18.5 64q0 48 -24.5 69.5t-81.5 21.5v77q37 0 62 24t25 62q0 65 -50 70q-42 6 -59 -15t-19 -67h-116q-6 85 42.5 134.5t139.5 49.5q87 0 135 -44.5t48 -111.5q0 -46 -25 -83.5t-77 -47.5q62 -8 91 -49t29 -100q0 -77 -53.5 -124.5 t-142.5 -47.5q-95 0 -141.5 42t-45.5 141z" />
<glyph unicode="&#xb4;" horiz-adv-x="563" d="M101 1170l203 162h215l-297 -162h-121z" />
<glyph unicode="&#xb5;" horiz-adv-x="1001" d="M107 -258v1186h219v-533q0 -121 40.5 -180t127.5 -59q88 0 136.5 71t48.5 193v508h213v-928h-213v113q-62 -121 -192 -121q-44 0 -92.5 16t-72.5 50v-316h-215z" />
<glyph unicode="&#xb6;" horiz-adv-x="929" d="M60 944q0 137 87 216t229 79h518v-121h-107v-1118h-127v1118h-148v-1118h-128v649h-8q-142 0 -229 79t-87 216z" />
<glyph unicode="&#xb7;" horiz-adv-x="618" d="M190 428v260h256v-260h-256z" />
<glyph unicode="&#xb8;" horiz-adv-x="440" d="M74.5 -126q-17.5 38 4 82t71.5 60q-28 -40 -19.5 -70t50.5 -30h115q56 0 84 -57q29 -58 4 -116q-38 -75 -139 -77h-91v84h95q44 0 58.5 21.5t-2.5 43t-50 21.5h-115q-48 0 -65.5 38z" />
<glyph unicode="&#xb9;" horiz-adv-x="456" d="M90 684v100h102v305h-95v69q35 0 62 12t41 29t23 34t11 29l3 12h80v-490h64v-100h-291z" />
<glyph unicode="&#xba;" horiz-adv-x="663" d="M71 931q-2 45 0 102q3 121 67.5 183.5t185.5 62.5t185.5 -62.5t69.5 -183.5q2 -57 0 -102q-10 -248 -255 -248q-243 0 -253 248zM211 916q5 -140 113 -140t114 140q2 91 0 132q-8 138 -114 138q-104 0 -113 -138q-2 -62 0 -132z" />
<glyph unicode="&#xbb;" horiz-adv-x="594" d="M57 736l54 468h164v-149l-130 -319h-88zM319 736l54 468h164v-149l-130 -319h-88z" />
<glyph unicode="&#xbc;" horiz-adv-x="1423" d="M96 575v119h120v363h-112v81q41 0 72.5 14t48.5 34.5t27.5 41t13.5 34.5l3 14h93v-582h74v-119h-340zM318 -260l478 1537h118l-478 -1537h-118zM743 134l238 571h150l-185 -457h153l1 139h128v-136h71v-117h-71v-134h-129v134h-356z" />
<glyph unicode="&#xbd;" horiz-adv-x="1427" d="M137 575v119h120v363h-112v81q41 0 72.5 14t48.5 34.5t27.5 41t13.5 34.5l3 14h93v-582h74v-119h-340zM358 -260l478 1537h118l-478 -1537h-118zM833 455q-18 253 234 253q95 0 156 -48t66.5 -125t-49.5 -174q-25 -43 -63 -102.5t-63 -96.5l-26 -38h191v-123h-432 q16 26 80.5 129.5t119 192t74.5 123.5q31 49 17.5 97t-63.5 51q-59 2 -77.5 -35.5t-15.5 -103.5h-149z" />
<glyph unicode="&#xbe;" horiz-adv-x="1427" d="M89 787h148q0 -104 79 -104q41 0 63.5 26.5t22.5 75.5q0 57 -29.5 82.5t-97.5 25.5v91q44 0 73.5 28t29.5 73q0 40 -13.5 60t-45.5 24q-51 8 -71 -17.5t-21 -79.5h-138q-8 100 49.5 158.5t166.5 58.5q103 0 160 -52.5t57 -131.5q0 -54 -29.5 -98t-90.5 -57 q72 -9 107 -57.5t35 -119.5q0 -91 -64 -147.5t-169 -56.5q-113 0 -168 50.5t-54 167.5zM392 -260h118l478 1537h-118zM774 133l237 568h149l-184 -455h152l1 139h127v-136h71v-116h-71v-133h-128v133h-354z" />
<glyph unicode="&#xbf;" horiz-adv-x="794" d="M76 202.5q-12 61.5 12 126.5t83 120q73 67 91 91q38 49 38 111h175q9 -57 -6.5 -105t-40 -75t-58.5 -64t-50 -62q-29 -50 -24.5 -94.5t33.5 -75.5t67 -31q73 0 98 51.5t20 142.5h220q12 -182 -71.5 -262.5t-274.5 -78.5q-187 0 -258 90q-42 54 -54 115.5zM264 800v260 h256v-260h-256z" />
<glyph unicode="&#xc0;" horiz-adv-x="1085" d="M-102 0l488 1278h309l486 -1278h-261l-131 387h-499l-131 -387h-261zM323 1561h215l203 -162h-121zM345 551h389l-195 575z" />
<glyph unicode="&#xc1;" horiz-adv-x="1112" d="M-102 0l488 1278h309l486 -1278h-261l-131 387h-499l-131 -387h-261zM345 551h389l-195 575zM398 1399l203 162h215l-297 -162h-121z" />
<glyph unicode="&#xc2;" horiz-adv-x="1091" d="M-102 0l488 1278h309l486 -1278h-261l-131 387h-499l-131 -387h-261zM319 1404l206 273h69l196 -273h-132l-98 162l-107 -162h-134zM345 551h389l-195 575z" />
<glyph unicode="&#xc3;" horiz-adv-x="1101" d="M-102 0l488 1278h309l486 -1278h-261l-131 387h-499l-131 -387h-261zM345 551h389l-195 575zM382 1367v120l17 25.5t20.5 28.5t21 22t28.5 18.5t33 5.5q24 0 45.5 -12.5t37 -30t29.5 -35t29 -30t29 -12.5q22 0 42 13.5t29 26t24.5 39.5t19.5 33v-118q-34 -100 -110 -100 q-27 0 -49.5 18t-35.5 39t-36.5 39t-53.5 18q-31 0 -53.5 -19t-41.5 -51t-25 -38z" />
<glyph unicode="&#xc4;" horiz-adv-x="1069" d="M-102 0l488 1278h309l486 -1278h-261l-131 387h-499l-131 -387h-261zM333 1502q0 35 23 58.5t57 23.5q35 0 58 -23.5t23 -58.5q0 -34 -23 -57t-58 -23q-34 0 -57 23t-23 57zM345 551h389l-195 575zM585 1502q0 35 22.5 58.5t56.5 23.5q36 0 59 -23.5t23 -58.5 q0 -34 -23 -57t-59 -23q-34 0 -56.5 23t-22.5 57z" />
<glyph unicode="&#xc5;" horiz-adv-x="1095" d="M-102 0l488 1278h309l486 -1278h-261l-131 387h-499l-131 -387h-261zM290 1471q0 102 73.5 176t175.5 74t176 -74t74 -176q0 -119 -95 -193h-309q-95 75 -95 193zM345 551h389l-195 575zM390 1471q0 -62 44.5 -108.5t104.5 -46.5q62 0 106 46.5t44 108.5 q0 63 -43.5 106.5t-106.5 43.5q-61 0 -105 -43.5t-44 -106.5z" />
<glyph unicode="&#xc6;" horiz-adv-x="1417" d="M-66 0l629 1278h117v-178l-297 -615h297v-159h-353l-139 -326h-254zM679 0v1278h618v-182h-425v-322h360v-180h-360v-414h425v-180h-618z" />
<glyph unicode="&#xc7;" horiz-adv-x="1214" d="M95 526q-2 99 0 226q9 267 140.5 405.5t375.5 138.5q208 0 333.5 -106.5t147.5 -312.5h-233q-5 98 -73.5 171.5t-174.5 73.5q-135 0 -203 -82t-77 -243q-9 -124 0 -312q13 -331 280 -331q114 0 177 66.5t77 188.5h240q-26 -216 -152 -322.5t-342 -106.5q-492 0 -516 546z M363.5 -140q-17.5 38 4 82t71.5 60q-28 -40 -19.5 -70t50.5 -30h115q56 0 84 -57q29 -58 4 -116q-38 -75 -139 -77h-91v84h95q44 0 58.5 21.5t-2.5 43t-50 21.5h-115q-48 0 -65.5 38z" />
<glyph unicode="&#xc8;" horiz-adv-x="1050" d="M140 0v1278h774v-182h-532v-322h450v-180h-450v-414h532v-180h-774zM323 1561h215l203 -162h-121z" />
<glyph unicode="&#xc9;" horiz-adv-x="1065" d="M140 0v1278h774v-182h-532v-322h450v-180h-450v-414h532v-180h-774zM398 1399l203 162h215l-297 -162h-121z" />
<glyph unicode="&#xca;" horiz-adv-x="1071" d="M140 0v1278h774v-182h-532v-322h450v-180h-450v-414h532v-180h-774zM264 1404l206 273h69l196 -273h-132l-98 162l-107 -162h-134z" />
<glyph unicode="&#xcb;" horiz-adv-x="1058" d="M140 0v1278h774v-182h-532v-322h450v-180h-450v-414h532v-180h-774zM358 1502q0 35 23 58.5t57 23.5q35 0 58 -23.5t23 -58.5q0 -34 -23 -57t-58 -23q-34 0 -57 23t-23 57zM610 1502q0 35 22.5 58.5t56.5 23.5q36 0 59 -23.5t23 -58.5q0 -34 -23 -57t-59 -23 q-34 0 -56.5 23t-22.5 57z" />
<glyph unicode="&#xcc;" horiz-adv-x="506" d="M-23 1561h215l203 -162h-121zM134 0v1278h240v-1278h-240z" />
<glyph unicode="&#xcd;" horiz-adv-x="512" d="M50 1399l203 162h215l-297 -162h-121zM134 0v1278h240v-1278h-240z" />
<glyph unicode="&#xce;" horiz-adv-x="506" d="M32 1404l206 273h69l196 -273h-132l-98 162l-107 -162h-134zM134 0v1278h240v-1278h-240z" />
<glyph unicode="&#xcf;" horiz-adv-x="512" d="M68 1502q0 35 23 58.5t57 23.5q35 0 58 -23.5t23 -58.5q0 -34 -23 -57t-58 -23q-34 0 -57 23t-23 57zM134 0v1278h240v-1278h-240zM320 1502q0 35 22.5 58.5t56.5 23.5q36 0 59 -23.5t23 -58.5q0 -34 -23 -57t-59 -23q-34 0 -56.5 23t-22.5 57z" />
<glyph unicode="&#xd0;" horiz-adv-x="1241" d="M11 566v166h211v546h426q82 0 147 -16.5t112 -44.5t81.5 -73.5t55.5 -96t33.5 -119t17 -136t4.5 -153.5t-4.5 -154t-17 -136.5t-33.5 -119t-55.5 -95.5t-81.5 -73.5t-112 -44.5t-147 -16h-426v566h-211zM439 158h141q50 0 90.5 7.5t70.5 17t53 33t38 39.5t25 54t15.5 59 t8 72.5t2.5 76v85.5v12.5v11.5v13q0 191 -8 250q-18 137 -101 188q-68 43 -194 43h-141v-388h170v-166h-170v-408z" />
<glyph unicode="&#xd1;" horiz-adv-x="1308" d="M142 0v1278h344l467 -1120v1120h221v-1278h-344l-465 1143v-1143h-223zM466 1397v120l17 25.5t20.5 28.5t21 22t28.5 18.5t33 5.5q24 0 45.5 -12.5t37 -30t29.5 -35t29 -30t29 -12.5q22 0 42 13.5t29 26t24.5 39.5t19.5 33v-118q-34 -100 -110 -100q-27 0 -49.5 18 t-35.5 39t-36.5 39t-53.5 18q-31 0 -53.5 -19t-41.5 -51t-25 -38z" />
<glyph unicode="&#xd2;" horiz-adv-x="1216" d="M51 526q-2 99 0 226q9 267 140.5 405.5t375.5 138.5t375.5 -138.5t140.5 -405.5q5 -127 0 -226q-22 -544 -516 -544q-246 0 -375 134t-141 410zM286 485q13 -331 281 -331q267 0 280 331q8 193 0 312q-9 161 -76.5 243t-203.5 82t-204 -82t-77 -243q-8 -119 0 -312z M405 1561h215l203 -162h-121z" />
<glyph unicode="&#xd3;" d="M43 526q-2 99 0 226q9 267 140.5 405.5t375.5 138.5t375.5 -138.5t140.5 -405.5q5 -127 0 -226q-22 -544 -516 -544q-246 0 -375 134t-141 410zM278 485q13 -331 281 -331q267 0 280 331q8 193 0 312q-9 161 -76.5 243t-203.5 82t-204 -82t-77 -243q-8 -119 0 -312z M461 1399l203 162h215l-297 -162h-121z" />
<glyph unicode="&#xd4;" d="M43 526q-2 99 0 226q9 267 140.5 405.5t375.5 138.5t375.5 -138.5t140.5 -405.5q5 -127 0 -226q-22 -544 -516 -544q-246 0 -375 134t-141 410zM278 485q13 -331 281 -331q267 0 280 331q8 193 0 312q-9 161 -76.5 243t-203.5 82t-204 -82t-77 -243q-8 -119 0 -312z M332 1404l206 273h69l196 -273h-132l-98 162l-107 -162h-134z" />
<glyph unicode="&#xd5;" horiz-adv-x="1208" d="M43 526q-2 99 0 226q9 267 140.5 405.5t375.5 138.5t375.5 -138.5t140.5 -405.5q5 -127 0 -226q-22 -544 -516 -544q-246 0 -375 134t-141 410zM278 485q13 -331 281 -331q267 0 280 331q8 193 0 312q-9 161 -76.5 243t-203.5 82t-204 -82t-77 -243q-8 -119 0 -312z M394 1397v120l17 25.5t20.5 28.5t21 22t28.5 18.5t33 5.5q24 0 45.5 -12.5t37 -30t29.5 -35t29 -30t29 -12.5q22 0 42 13.5t29 26t24.5 39.5t19.5 33v-118q-34 -100 -110 -100q-27 0 -49.5 18t-35.5 39t-36.5 39t-53.5 18q-31 0 -53.5 -19t-41.5 -51t-25 -38z" />
<glyph unicode="&#xd6;" d="M43 526q-2 99 0 226q9 267 140.5 405.5t375.5 138.5t375.5 -138.5t140.5 -405.5q5 -127 0 -226q-22 -544 -516 -544q-246 0 -375 134t-141 410zM278 485q13 -331 281 -331q267 0 280 331q8 193 0 312q-9 161 -76.5 243t-203.5 82t-204 -82t-77 -243q-8 -119 0 -312z M370 1502q0 35 23 58.5t57 23.5q35 0 58 -23.5t23 -58.5q0 -34 -23 -57t-58 -23q-34 0 -57 23t-23 57zM622 1502q0 35 22.5 58.5t56.5 23.5q36 0 59 -23.5t23 -58.5q0 -34 -23 -57t-59 -23q-34 0 -56.5 23t-22.5 57z" />
<glyph unicode="&#xd7;" horiz-adv-x="782" d="M83 337l188 188l-188 189l121 121l188 -189l188 189l121 -121l-188 -189l188 -188l-121 -121l-188 188l-188 -188z" />
<glyph unicode="&#xd8;" horiz-adv-x="1138" d="M44 526q-2 99 0 226q9 267 140.5 405.5t375.5 138.5q116 0 212 -34l66 147l99 -45l-68 -151q195 -131 207 -461q5 -127 0 -226q-22 -544 -516 -544q-131 0 -227 37l-74 -164l-98 47l76 169q-180 130 -193 455zM279 485q5 -131 50 -209l367 817q-56 29 -136 29 q-136 0 -204 -82t-77 -243q-8 -119 0 -312zM410 191q59 -37 150 -37q267 0 280 331q8 193 0 312q-9 142 -59 219z" />
<glyph unicode="&#xd9;" horiz-adv-x="1144" d="M89 483v795h248v-780q0 -330 239 -330q132 0 186 83t54 247v780h248v-795q0 -242 -128 -366.5t-360 -124.5q-231 0 -359 124.5t-128 366.5zM315 1561h215l203 -162h-121z" />
<glyph unicode="&#xda;" horiz-adv-x="1161" d="M89 483v795h248v-780q0 -330 239 -330q132 0 186 83t54 247v780h248v-795q0 -242 -128 -366.5t-360 -124.5q-231 0 -359 124.5t-128 366.5zM490 1399l203 162h215l-297 -162h-121z" />
<glyph unicode="&#xdb;" horiz-adv-x="1149" d="M89 483v795h248v-780q0 -330 239 -330q132 0 186 83t54 247v780h248v-795q0 -242 -128 -366.5t-360 -124.5q-231 0 -359 124.5t-128 366.5zM354 1404l206 273h69l196 -273h-132l-98 162l-107 -162h-134z" />
<glyph unicode="&#xdc;" horiz-adv-x="1144" d="M89 483v795h248v-780q0 -330 239 -330q132 0 186 83t54 247v780h248v-795q0 -242 -128 -366.5t-360 -124.5q-231 0 -359 124.5t-128 366.5zM378 1502q0 35 23 58.5t57 23.5q35 0 58 -23.5t23 -58.5q0 -34 -23 -57t-58 -23q-34 0 -57 23t-23 57zM630 1502q0 35 22.5 58.5 t56.5 23.5q36 0 59 -23.5t23 -58.5q0 -34 -23 -57t-59 -23q-34 0 -56.5 23t-22.5 57z" />
<glyph unicode="&#xdd;" horiz-adv-x="864" d="M-65 1278h244l258 -600l258 600h244l-385 -754v-524h-236v524zM316 1399l203 162h215l-297 -162h-121z" />
<glyph unicode="&#xde;" horiz-adv-x="1050" d="M124 -260v1539h220v-291q80 34 193 34q193 0 297 -100.5t111 -294.5q7 -135 0 -240q-16 -397 -408 -397q-111 0 -193 32v-282h-220zM355 364q9 -225 182 -225t182 225q6 198 0 287q-6 110 -50 166t-132 56q-87 0 -130.5 -56t-51.5 -166q-4 -136 0 -287z" />
<glyph unicode="&#xdf;" horiz-adv-x="1169" d="M134 0v915q0 121 57.5 204.5t151 121t217.5 37.5q78 0 143.5 -16t121 -50.5t87 -98t31.5 -150.5q0 -60 -21 -101t-50.5 -62t-59.5 -37t-51 -37.5t-21 -51.5q0 -28 34 -53t83.5 -49.5t100 -55.5t89 -85.5t45.5 -125.5q17 -166 -80.5 -235.5t-324.5 -69.5h-92v162h53 q132 0 182.5 32.5t34.5 124.5q-7 38 -38 72t-71 60.5t-79 53.5t-65.5 64.5t-26.5 81.5q-6 37 9 68t40.5 55.5t51.5 50t45 64t19 84.5q0 146 -192 149q-110 1 -159.5 -67.5t-49.5 -220.5l2 -834h-217z" />
<glyph unicode="&#xe0;" horiz-adv-x="1011" d="M64 258q0 123 67.5 201.5t215.5 111.5q72 15 184 36.5t138 27.5q0 29 -4.5 50.5t-10.5 36.5t-20.5 24.5t-25 14.5t-34.5 7.5t-39.5 3t-48.5 0.5q-44 0 -133.5 -5.5t-156.5 -10.5l-68 -6l-8 165q415 21 481 21q76 0 129.5 -18.5t85.5 -49t50 -82.5t24 -107t6 -134v-545 h-225v121q-85 -133 -322 -133q-149 0 -217 72.5t-68 197.5zM237 1277h215l203 -162h-121zM265 264q0 -41 26.5 -70t57.5 -40t59 -11q121 0 192 74t71 176v111q-85 -18 -226 -58q-86 -25 -133 -71t-47 -111z" />
<glyph unicode="&#xe1;" horiz-adv-x="1001" d="M64 258q0 123 67.5 201.5t215.5 111.5q72 15 184 36.5t138 27.5q0 29 -4.5 50.5t-10.5 36.5t-20.5 24.5t-25 14.5t-34.5 7.5t-39.5 3t-48.5 0.5q-44 0 -133.5 -5.5t-156.5 -10.5l-68 -6l-8 165q415 21 481 21q76 0 129.5 -18.5t85.5 -49t50 -82.5t24 -107t6 -134v-545 h-225v121q-85 -133 -322 -133q-149 0 -217 72.5t-68 197.5zM265 264q0 -41 26.5 -70t57.5 -40t59 -11q121 0 192 74t71 176v111q-85 -18 -226 -58q-86 -25 -133 -71t-47 -111zM316 1100l203 162h215l-297 -162h-121z" />
<glyph unicode="&#xe2;" horiz-adv-x="991" d="M64 258q0 123 67.5 201.5t215.5 111.5q72 15 184 36.5t138 27.5q0 29 -4.5 50.5t-10.5 36.5t-20.5 24.5t-25 14.5t-34.5 7.5t-39.5 3t-48.5 0.5q-44 0 -133.5 -5.5t-156.5 -10.5l-68 -6l-8 165q415 21 481 21q76 0 129.5 -18.5t85.5 -49t50 -82.5t24 -107t6 -134v-545 h-225v121q-85 -133 -322 -133q-149 0 -217 72.5t-68 197.5zM262 1045l206 273h69l196 -273h-132l-98 162l-107 -162h-134zM265 264q0 -41 26.5 -70t57.5 -40t59 -11q121 0 192 74t71 176v111q-85 -18 -226 -58q-86 -25 -133 -71t-47 -111z" />
<glyph unicode="&#xe3;" horiz-adv-x="1001" d="M64 258q0 123 67.5 201.5t215.5 111.5q72 15 184 36.5t138 27.5q0 29 -4.5 50.5t-10.5 36.5t-20.5 24.5t-25 14.5t-34.5 7.5t-39.5 3t-48.5 0.5q-44 0 -133.5 -5.5t-156.5 -10.5l-68 -6l-8 165q415 21 481 21q76 0 129.5 -18.5t85.5 -49t50 -82.5t24 -107t6 -134v-545 h-225v121q-85 -133 -322 -133q-149 0 -217 72.5t-68 197.5zM265 264q0 -41 26.5 -70t57.5 -40t59 -11q121 0 192 74t71 176v111q-85 -18 -226 -58q-86 -25 -133 -71t-47 -111zM308 1084v120l17 25.5t20.5 28.5t21 22t28.5 18.5t33 5.5q29 0 55.5 -19t42 -41t35.5 -41t37 -19 q22 0 42 13.5t29 26t24.5 39.5t19.5 33v-118q-34 -100 -110 -100q-27 0 -49.5 18t-35.5 39t-36.5 39t-53.5 18q-31 0 -53.5 -19t-41.5 -51t-25 -38z" />
<glyph unicode="&#xe4;" horiz-adv-x="995" d="M64 258q0 123 67.5 201.5t215.5 111.5q72 15 184 36.5t138 27.5q0 29 -4.5 50.5t-10.5 36.5t-20.5 24.5t-25 14.5t-34.5 7.5t-39.5 3t-48.5 0.5q-44 0 -133.5 -5.5t-156.5 -10.5l-68 -6l-8 165q415 21 481 21q76 0 129.5 -18.5t85.5 -49t50 -82.5t24 -107t6 -134v-545 h-225v121q-85 -133 -322 -133q-149 0 -217 72.5t-68 197.5zM265 264q0 -41 26.5 -70t57.5 -40t59 -11q121 0 192 74t71 176v111q-85 -18 -226 -58q-86 -25 -133 -71t-47 -111zM276 1181q0 35 23 58.5t57 23.5q35 0 58 -23.5t23 -58.5q0 -34 -23 -57t-58 -23q-34 0 -57 23 t-23 57zM528 1181q0 35 22.5 58.5t56.5 23.5q36 0 59 -23.5t23 -58.5q0 -34 -23 -57t-59 -23q-34 0 -56.5 23t-22.5 57z" />
<glyph unicode="&#xe5;" horiz-adv-x="1005" d="M64 258q0 123 67.5 201.5t215.5 111.5q72 15 184 36.5t138 27.5q0 29 -4.5 50.5t-10.5 36.5t-20.5 24.5t-25 14.5t-34.5 7.5t-39.5 3t-48.5 0.5q-44 0 -133.5 -5.5t-156.5 -10.5l-68 -6l-8 165q415 21 481 21q76 0 129.5 -18.5t85.5 -49t50 -82.5t24 -107t6 -134v-545 h-225v121q-85 -133 -322 -133q-149 0 -217 72.5t-68 197.5zM265 264q0 -41 26.5 -70t57.5 -40t59 -11q121 0 192 74t71 176v111q-85 -18 -226 -58q-86 -25 -133 -71t-47 -111zM269 1259q0 93 67 160.5t160 67.5q92 0 159.5 -68t67.5 -160q0 -93 -67.5 -160t-159.5 -67 q-94 0 -160.5 67t-66.5 160zM360 1259q0 -55 40 -95t96 -40q57 0 96.5 39.5t39.5 95.5q0 58 -39.5 97.5t-96.5 39.5q-56 0 -96 -40t-40 -97z" />
<glyph unicode="&#xe6;" horiz-adv-x="1540" d="M81 258q0 123 63.5 201.5t202.5 111.5q67 15 172.5 36.5t129.5 27.5q0 23 -2.5 41t-6 31.5t-11.5 24t-14.5 17t-20 11t-22.5 7t-28.5 4t-31 1.5h-35.5q-41 0 -125 -5.5t-148 -10.5l-63 -6l-8 165q390 21 452 21q68 0 112.5 -27t83.5 -76q41 49 118 82t160 33 q187 0 289.5 -108t102.5 -310q0 -44 -1 -89.5t-1 -59.5h-573q3 -118 50.5 -185.5t132.5 -67.5q62 0 97.5 32.5t44.5 89.5h229q-14 -130 -117 -197t-254 -67q-228 0 -312 183q-72 -99 -164.5 -141t-234.5 -40q-267 3 -267 270zM270 264q0 -59 44.5 -90t89.5 -31q113 0 180 74 t67 176v111q-83 -19 -212 -58q-81 -24 -125 -70.5t-44 -111.5zM874 529h360q0 54 -6.5 96.5t-24 85t-54 67.5t-90.5 28q-97 0 -140 -76.5t-45 -200.5z" />
<glyph unicode="&#xe7;" horiz-adv-x="975" d="M83 383q-5 72 0 164q6 193 112 294t297 101q186 0 281.5 -72.5t118.5 -232.5h-240q-9 76 -52.5 116t-107.5 40q-86 0 -123.5 -50.5t-46.5 -160.5q-3 -102 0 -211q11 -236 170 -236q71 0 112.5 44.5t49.5 121.5h238q-19 -171 -110.5 -243t-289.5 -72q-391 0 -409 397z M284.5 -139q-17.5 38 4 82t71.5 60q-28 -40 -19.5 -70t50.5 -30h115q56 0 84 -57q29 -58 4 -116q-38 -75 -139 -77h-91v84h95q44 0 58.5 21.5t-2.5 43t-50 21.5h-115q-48 0 -65.5 38z" />
<glyph unicode="&#xe8;" horiz-adv-x="991" d="M79 383q-5 72 0 164q10 195 115.5 295t304.5 100t308 -107t109 -308q0 -140 -2 -148h-610q3 -117 53.5 -184.5t141.5 -67.5q65 0 103.5 32.5t47.5 88.5h244q-15 -129 -124.5 -195.5t-270.5 -66.5q-200 0 -303.5 97.5t-116.5 299.5zM243 1245h215l203 -162h-121zM302 526 h383q0 54 -7 96t-25.5 84t-57 67t-96.5 28q-103 0 -149 -76t-48 -199z" />
<glyph unicode="&#xe9;" horiz-adv-x="987" d="M79 383q-5 72 0 164q10 195 115.5 295t304.5 100t308 -107t109 -308q0 -140 -2 -148h-610q3 -117 53.5 -184.5t141.5 -67.5q65 0 103.5 32.5t47.5 88.5h244q-15 -129 -124.5 -195.5t-270.5 -66.5q-200 0 -303.5 97.5t-116.5 299.5zM302 526h383q0 54 -7 96t-25.5 84 t-57 67t-96.5 28q-103 0 -149 -76t-48 -199zM327 1089l203 162h215l-297 -162h-121z" />
<glyph unicode="&#xea;" horiz-adv-x="987" d="M79 383q-5 72 0 164q10 195 115.5 295t304.5 100t308 -107t109 -308q0 -140 -2 -148h-610q3 -117 53.5 -184.5t141.5 -67.5q65 0 103.5 32.5t47.5 88.5h244q-15 -129 -124.5 -195.5t-270.5 -66.5q-200 0 -303.5 97.5t-116.5 299.5zM250 1056l206 273h69l196 -273h-132 l-98 162l-107 -162h-134zM302 526h383q0 54 -7 96t-25.5 84t-57 67t-96.5 28q-103 0 -149 -76t-48 -199z" />
<glyph unicode="&#xeb;" horiz-adv-x="987" d="M79 383q-5 72 0 164q10 195 115.5 295t304.5 100t308 -107t109 -308q0 -140 -2 -148h-610q3 -117 53.5 -184.5t141.5 -67.5q65 0 103.5 32.5t47.5 88.5h244q-15 -129 -124.5 -195.5t-270.5 -66.5q-200 0 -303.5 97.5t-116.5 299.5zM282 1148q0 35 23 58.5t57 23.5 q35 0 58 -23.5t23 -58.5q0 -34 -23 -57t-58 -23q-34 0 -57 23t-23 57zM302 526h383q0 54 -7 96t-25.5 84t-57 67t-96.5 28q-103 0 -149 -76t-48 -199zM534 1148q0 35 22.5 58.5t56.5 23.5q36 0 59 -23.5t23 -58.5q0 -34 -23 -57t-59 -23q-34 0 -56.5 23t-22.5 57z" />
<glyph unicode="&#xec;" horiz-adv-x="463" d="M-30 1247h215l203 -162h-121zM114 0v934h240v-934h-240z" />
<glyph unicode="&#xed;" horiz-adv-x="483" d="M31 1079l203 162h215l-297 -162h-121zM114 0v934h240v-934h-240z" />
<glyph unicode="&#xee;" horiz-adv-x="467" d="M-13 1057l206 273h69l196 -273h-132l-98 162l-107 -162h-134zM114 0v934h240v-934h-240z" />
<glyph unicode="&#xef;" horiz-adv-x="473" d="M32 1183q0 35 23 58.5t57 23.5q35 0 58 -23.5t23 -58.5q0 -34 -23 -57t-58 -23q-34 0 -57 23t-23 57zM114 0v934h240v-934h-240zM284 1183q0 35 22.5 58.5t56.5 23.5q36 0 59 -23.5t23 -58.5q0 -34 -23 -57t-59 -23q-34 0 -56.5 23t-22.5 57z" />
<glyph unicode="&#xf0;" horiz-adv-x="848" d="M62 334q0 139 66.5 223t171.5 111q23 8 78.5 4.5t93.5 -21.5l-100 150l-130 -81l-42 62l124 84l-93 127l188 107l80 -141l123 76l40 -70l-116 -71q18 -31 47 -79.5t46 -77t39 -69t40 -78.5q46 -95 57 -153.5t6 -135.5q-9 -130 -109 -216.5t-251 -86.5q-155 0 -257 93.5 t-102 242.5zM275 350q0 -85 42 -136.5t106 -51.5q76 0 122 50t46 136q0 81 -49.5 130.5t-116.5 49.5q-63 0 -106.5 -50.5t-43.5 -127.5z" />
<glyph unicode="&#xf1;" horiz-adv-x="1061" d="M103 0v928h228v-123q72 131 264 131q81 0 145.5 -20t107 -54t70.5 -83.5t40 -105.5t12 -122v-551h-220v532q0 117 -58.5 182.5t-156.5 65.5q-96 0 -150 -65t-54 -183v-532h-228zM357 1053v120l17 25.5t20.5 28.5t21 22t28.5 18.5t33 5.5q24 0 45.5 -12.5t37 -30t29.5 -35 t29 -30t29 -12.5q22 0 42 13.5t29 26t24.5 39.5t19.5 33v-118q-34 -100 -110 -100q-27 0 -49.5 18t-35.5 39t-36.5 39t-53.5 18q-31 0 -53.5 -19t-41.5 -51t-25 -38z" />
<glyph unicode="&#xf2;" horiz-adv-x="970" d="M79 383q-4 72 0 164q6 194 110 294.5t297 100.5t297 -100.5t111 -294.5q5 -92 0 -164q-16 -397 -408 -397q-195 0 -296.5 98t-110.5 299zM222 1229h215l203 -162h-121zM304 360q9 -225 182 -225t182 225q4 146 0 211q-6 110 -50 166t-132 56q-87 0 -130.5 -56t-51.5 -166 q-3 -100 0 -211z" />
<glyph unicode="&#xf3;" horiz-adv-x="975" d="M79 383q-4 72 0 164q6 194 110 294.5t297 100.5t297 -100.5t111 -294.5q5 -92 0 -164q-16 -397 -408 -397q-195 0 -296.5 98t-110.5 299zM296 1047l203 162h215l-297 -162h-121zM304 360q9 -225 182 -225t182 225q4 146 0 211q-6 110 -50 166t-132 56q-87 0 -130.5 -56 t-51.5 -166q-3 -100 0 -211z" />
<glyph unicode="&#xf4;" horiz-adv-x="970" d="M79 383q-4 72 0 164q6 194 110 294.5t297 100.5t297 -100.5t111 -294.5q5 -92 0 -164q-16 -397 -408 -397q-195 0 -296.5 98t-110.5 299zM243 1042l206 273h69l196 -273h-132l-98 162l-107 -162h-134zM304 360q9 -225 182 -225t182 225q4 146 0 211q-6 110 -50 166 t-132 56q-87 0 -130.5 -56t-51.5 -166q-3 -100 0 -211z" />
<glyph unicode="&#xf5;" horiz-adv-x="975" d="M79 383q-4 72 0 164q6 194 110 294.5t297 100.5t297 -100.5t111 -294.5q5 -92 0 -164q-16 -397 -408 -397q-195 0 -296.5 98t-110.5 299zM293 1051v120l17 25.5t20.5 28.5t21 22t28.5 18.5t33 5.5q24 0 45.5 -12.5t37 -30t29.5 -35t29 -30t29 -12.5q22 0 42 13.5t29 26 t24.5 39.5t19.5 33v-118q-34 -100 -110 -100q-27 0 -49.5 18t-35.5 39t-36.5 39t-53.5 18q-31 0 -53.5 -19t-41.5 -51t-25 -38zM304 360q9 -225 182 -225t182 225q4 146 0 211q-6 110 -50 166t-132 56q-87 0 -130.5 -56t-51.5 -166q-3 -100 0 -211z" />
<glyph unicode="&#xf6;" horiz-adv-x="970" d="M79 383q-4 72 0 164q6 194 110 294.5t297 100.5t297 -100.5t111 -294.5q5 -92 0 -164q-16 -397 -408 -397q-195 0 -296.5 98t-110.5 299zM286 1163q0 35 23 58.5t57 23.5q35 0 58 -23.5t23 -58.5q0 -34 -23 -57t-58 -23q-34 0 -57 23t-23 57zM304 360q9 -225 182 -225 t182 225q4 146 0 211q-6 110 -50 166t-132 56q-87 0 -130.5 -56t-51.5 -166q-3 -100 0 -211zM538 1163q0 35 22.5 58.5t56.5 23.5q36 0 59 -23.5t23 -58.5q0 -34 -23 -57t-59 -23q-34 0 -56.5 23t-22.5 57z" />
<glyph unicode="&#xf7;" horiz-adv-x="709" d="M26 397v194h641v-194h-641zM222 719v260h256v-260h-256zM224 0v260h256v-260h-256z" />
<glyph unicode="&#xf8;" horiz-adv-x="917" d="M46 383q-4 72 0 164q6 194 110 294.5t297 100.5q86 0 155 -21l44 99l68 -31l-42 -96q174 -91 183 -346q5 -92 0 -164q-16 -397 -408 -397q-91 0 -166 22l-59 -133l-67 33l57 130q-162 91 -172 345zM271 360q3 -82 30 -136l242 548q-38 21 -90 21q-87 0 -130.5 -56 t-51.5 -166q-3 -100 0 -211zM354 161q40 -26 99 -26q173 0 182 225q4 146 0 211q-6 92 -36 145z" />
<glyph unicode="&#xf9;" horiz-adv-x="1018" d="M113 377v551h213v-533q0 -121 40.5 -180t127.5 -59q88 0 136.5 71t48.5 193v508h213v-928h-213v113q-62 -121 -232 -121q-334 0 -334 385zM235 1246h215l203 -162h-121z" />
<glyph unicode="&#xfa;" horiz-adv-x="1028" d="M113 377v551h213v-533q0 -121 40.5 -180t127.5 -59q88 0 136.5 71t48.5 193v508h213v-928h-213v113q-62 -121 -232 -121q-334 0 -334 385zM343 1082l203 162h215l-297 -162h-121z" />
<glyph unicode="&#xfb;" horiz-adv-x="1022" d="M113 377v551h213v-533q0 -121 40.5 -180t127.5 -59q88 0 136.5 71t48.5 193v508h213v-928h-213v113q-62 -121 -232 -121q-334 0 -334 385zM275 1082l206 273h69l196 -273h-132l-98 162l-107 -162h-134z" />
<glyph unicode="&#xfc;" horiz-adv-x="1032" d="M113 377v551h213v-533q0 -121 40.5 -180t127.5 -59q88 0 136.5 71t48.5 193v508h213v-928h-213v113q-62 -121 -232 -121q-334 0 -334 385zM305 1177q0 35 23 58.5t57 23.5q35 0 58 -23.5t23 -58.5q0 -34 -23 -57t-58 -23q-34 0 -57 23t-23 57zM557 1177q0 35 22.5 58.5 t56.5 23.5q36 0 59 -23.5t23 -58.5q0 -34 -23 -57t-59 -23q-34 0 -56.5 23t-22.5 57z" />
<glyph unicode="&#xfd;" horiz-adv-x="757" d="M-9 928h242l168 -588l145 588h236l-375 -1188h-223l133 387zM235 1070l203 162h215l-297 -162h-121z" />
<glyph unicode="&#xfe;" horiz-adv-x="891" d="M126 0v1062h180v-263q65 56 162 56q313 0 325 -316q7 -145 -74.5 -237t-250.5 -92q-98 0 -162 54v-264h-180zM312 538q0 -123 35 -166t113 -43q163 0 149 225q-11 181 -149 181q-73 0 -110.5 -50t-37.5 -147z" />
<glyph unicode="&#xff;" horiz-adv-x="772" d="M-28 928h242l168 -588l145 588h236l-375 -1188h-223l133 387zM190 1161q0 35 23 58.5t57 23.5q35 0 58 -23.5t23 -58.5q0 -34 -23 -57t-58 -23q-34 0 -57 23t-23 57zM442 1161q0 35 22.5 58.5t56.5 23.5q36 0 59 -23.5t23 -58.5q0 -34 -23 -57t-59 -23q-34 0 -56.5 23 t-22.5 57z" />
<glyph unicode="&#x152;" horiz-adv-x="1757" d="M116 526q-2 99 0 226q8 267 130 405.5t349 138.5q228 0 338 -182v164h656v-182h-457v-322h387v-180h-387v-414h457v-180h-656v159q-54 -89 -136 -133t-202 -44q-228 0 -348 134t-131 410zM334 485q13 -331 261 -331q128 0 196.5 85.5t74.5 245.5q6 201 0 312 q-19 325 -271 325q-125 0 -188.5 -82t-72.5 -243q-6 -111 0 -312z" />
<glyph unicode="&#x153;" horiz-adv-x="1546" d="M79 383q-4 72 0 164q6 194 110 294.5t297 100.5q98 0 179.5 -50.5t127.5 -131.5q45 81 125.5 131.5t177.5 50.5q193 0 296 -107t103 -318l-1 -138h-587q2 -117 52 -184.5t137 -67.5q63 0 99.5 32.5t45.5 88.5h234q-14 -129 -119.5 -195.5t-259.5 -66.5q-98 0 -178 49.5 t-124 129.5q-46 -80 -127.5 -129.5t-180.5 -49.5q-195 0 -296.5 98t-110.5 299zM304 360q9 -225 182 -225q171 0 185 225q6 111 0 211q-13 222 -185 222q-169 0 -182 -222q-5 -85 0 -211zM905 526h370q0 54 -6.5 96t-24.5 84t-55.5 67t-92.5 28q-99 0 -144 -76.5t-47 -198.5 z" />
<glyph unicode="&#x178;" horiz-adv-x="923" d="M-30 1278h244l258 -600l258 600h244l-385 -754v-524h-236v524zM269 1502q0 35 23 58.5t57 23.5q35 0 58 -23.5t23 -58.5q0 -34 -23 -57t-58 -23q-34 0 -57 23t-23 57zM521 1502q0 35 22.5 58.5t56.5 23.5q36 0 59 -23.5t23 -58.5q0 -34 -23 -57t-59 -23q-34 0 -56.5 23 t-22.5 57z" />
<glyph unicode="&#x2c6;" horiz-adv-x="640" d="M88 1173l206 273h69l196 -273h-132l-98 162l-107 -162h-134z" />
<glyph unicode="&#x2dc;" horiz-adv-x="563" d="M77 1166v120l17 25.5t20.5 28.5t21 22t28.5 18.5t33 5.5q29 0 55.5 -19t42 -41t35.5 -41t37 -19q22 0 42 13.5t29 26t24.5 39.5t19.5 33v-118q-34 -100 -110 -100q-27 0 -49.5 18t-35.5 39t-36.5 39t-53.5 18q-31 0 -53.5 -19t-41.5 -51t-25 -38z" />
<glyph unicode="&#x2000;" horiz-adv-x="860" />
<glyph unicode="&#x2001;" horiz-adv-x="1721" />
<glyph unicode="&#x2002;" horiz-adv-x="860" />
<glyph unicode="&#x2003;" horiz-adv-x="1721" />
<glyph unicode="&#x2004;" horiz-adv-x="573" />
<glyph unicode="&#x2005;" horiz-adv-x="430" />
<glyph unicode="&#x2006;" horiz-adv-x="286" />
<glyph unicode="&#x2007;" horiz-adv-x="286" />
<glyph unicode="&#x2008;" horiz-adv-x="215" />
<glyph unicode="&#x2009;" horiz-adv-x="344" />
<glyph unicode="&#x200a;" horiz-adv-x="95" />
<glyph unicode="&#x2010;" horiz-adv-x="817" d="M107 449v176h588v-176h-588z" />
<glyph unicode="&#x2011;" horiz-adv-x="817" d="M107 449v176h588v-176h-588z" />
<glyph unicode="&#x2012;" horiz-adv-x="817" d="M107 449v176h588v-176h-588z" />
<glyph unicode="&#x2013;" horiz-adv-x="1108" d="M43 452v160h1025v-160h-1025z" />
<glyph unicode="&#x2014;" horiz-adv-x="2177" d="M77 472v116h2068v-116h-2068z" />
<glyph unicode="&#x2018;" horiz-adv-x="442" d="M104 729l60 475h184v-151l-146 -324h-98z" />
<glyph unicode="&#x2019;" horiz-adv-x="440" d="M104 729l60 475h184v-151l-146 -324h-98z" />
<glyph unicode="&#x201a;" horiz-adv-x="442" d="M104 729l60 475h184v-151l-146 -324h-98z" />
<glyph unicode="&#x201c;" horiz-adv-x="610" d="M57 736l54 468h164v-149l-130 -319h-88zM319 736l54 468h164v-149l-130 -319h-88z" />
<glyph unicode="&#x201d;" horiz-adv-x="610" d="M57 736l54 468h164v-149l-130 -319h-88zM319 736l54 468h164v-149l-130 -319h-88z" />
<glyph unicode="&#x201e;" horiz-adv-x="610" d="M57 736l54 468h164v-149l-130 -319h-88zM319 736l54 468h164v-149l-130 -319h-88z" />
<glyph unicode="&#x2022;" horiz-adv-x="673" d="M105 534q0 94 66 159.5t160 65.5t159.5 -65.5t65.5 -159.5t-65.5 -159.5t-159.5 -65.5t-160 65.5t-66 159.5z" />
<glyph unicode="&#x2026;" horiz-adv-x="1763" d="M204 0v260h256v-260h-256zM745 0v260h256v-260h-256zM1324 0v260h256v-260h-256z" />
<glyph unicode="&#x202f;" horiz-adv-x="344" />
<glyph unicode="&#x2039;" horiz-adv-x="956" d="M20 524v109l817 405v-217l-617 -246l617 -241v-215z" />
<glyph unicode="&#x203a;" horiz-adv-x="1040" d="M176 74v215l617 241l-617 246v217l817 -405v-109z" />
<glyph unicode="&#x205f;" horiz-adv-x="430" />
<glyph unicode="&#x20ac;" horiz-adv-x="903" d="M-28 461v129h131v112h-131v129h131l2 105q0 86 32 154t88 110t129 64t159 22q99 0 176.5 -25t122.5 -67t67.5 -91t22.5 -102h-186q-19 82 -63.5 117t-139.5 35q-30 0 -55 -4t-54.5 -18t-49.5 -38t-34 -68.5t-14 -104.5v-89h213v-129h-213v-112h213v-129h-213v-80 q0 -65 11.5 -112.5t29.5 -75.5t46 -44.5t56 -22t64 -5.5q95 0 141 36t62 124h188q-1 -58 -26 -110t-71.5 -93.5t-122.5 -66.5t-171 -25q-174 0 -291 91.5t-117 254.5v129h-133z" />
<glyph unicode="&#x2122;" horiz-adv-x="1333" d="M64 1165v113h446v-113h-141v-407h-154v407h-151zM590 758v520h228l98 -295l106 295h219v-520h-137v440l-106 -334h-160l-109 334v-440h-139z" />
<glyph unicode="&#x25fc;" horiz-adv-x="930" d="M0 0v930h930v-930h-930z" />
</font>
</defs>
</svg>
